<svg xmlns="http://www.w3.org/2000/svg" xmlns:xlink="http://www.w3.org/1999/xlink" viewBox="0,0,256,256" width="24px" height="24px" fill-rule="nonzero"><g fill="#a3a3a3" fill-rule="nonzero" stroke="none" stroke-width="1" stroke-linecap="butt" stroke-linejoin="miter" stroke-miterlimit="10" stroke-dasharray="" stroke-dashoffset="0" font-family="none" font-weight="none" font-size="none" text-anchor="none" style="mix-blend-mode: normal"><g transform="scale(10.66667,10.66667)"><path d="M10.053,7.988l5.631,8.024h-1.497l-5.621,-8.024zM21,7v10c0,2.209 -1.791,4 -4,4h-10c-2.209,0 -4,-1.791 -4,-4v-10c0,-2.209 1.791,-4 4,-4h10c2.209,0 4,1.791 4,4zM17.538,17l-4.186,-5.99l3.422,-4.01h-1.311l-2.704,3.16l-2.207,-3.16h-3.85l3.941,5.633l-3.737,4.367h1.333l3.001,-3.516l2.458,3.516z"></path></g></g></svg>